<svg xmlns="http://www.w3.org/2000/svg" viewBox="0 0 64 64"><defs><style>.cls-1,.cls-8{fill:none}.cls-1,.cls-6{stroke:#288eea}.cls-1,.cls-5,.cls-6,.cls-7{stroke-miterlimit:10}.cls-1,.cls-7,.cls-8{stroke-width:2px}.cls-2,.cls-5,.cls-7{fill:#d4e8fb}.cls-3{fill:#288eea}.cls-4{fill:#272525}.cls-5,.cls-7,.cls-8{stroke:#298eea}.cls-5,.cls-8{stroke-linecap:round}.cls-6{fill:#fff;stroke-width:.75px}.cls-8{stroke-linejoin:round}</style></defs><title>icon PHP Hosting</title><g id="Layer_6" data-name="Layer 6"><path class="cls-1" d="M32 6.7 9.923 14.537s.339 14.9 4.067 24.8C19.07 52.832 32 57.3 32 57.3s12.93-4.47 18.011-17.964c3.729-9.9 4.067-24.8 4.067-24.8z"/><path class="cls-2" d="M31.608 9.9V32.277H15.155A88.836 88.836.0 0 1 13.2 16.44z"/><path class="cls-3" d="M33.158 33.277h.158v.158H33.158z"/><path class="cls-2" d="M48.573 33.434a38.3 38.3.0 0 1-1.4 4.686C43.241 48.568 33.659 52.527 32.316 53.038v-19.6z"/><path class="cls-4" d="M33.158 33.277h.158v.158H33.158z"/><path class="cls-4" d="M33.158 33.277h.158v.158H33.158z"/><circle class="cls-5" cx="32" cy="31.257" r="14.125"/><path class="cls-6" d="M32 20.51A10.747 10.747.0 1 1 21.253 31.257"/><path class="cls-6" d="M21.253 31.257A10.747 10.747.0 0 1 32 20.51"/><path class="cls-7" d="M32 28.907V41.833z"/><path class="cls-8" d="M26.878 33.065 32.049 27.893l5.073 5.073"/></g></svg>