<svg xmlns="http://www.w3.org/2000/svg" viewBox="0 0 618 360"><defs><style>.cls-1{fill:#f7fcff}.cls-15,.cls-17,.cls-2,.cls-6,.cls-7{fill:#fff}.cls-2,.cls-5{stroke:#80c9ff}.cls-10,.cls-13,.cls-14,.cls-15,.cls-2,.cls-22,.cls-6,.cls-7,.cls-9{stroke-miterlimit:10}.cls-10,.cls-2,.cls-5,.cls-6,.cls-9{stroke-width:4px}.cls-3{fill:#def1ff}.cls-20,.cls-4{fill:#80c9ff}.cls-22,.cls-5,.cls-9{fill:none}.cls-10,.cls-13,.cls-14,.cls-15,.cls-5,.cls-6,.cls-7,.cls-9{stroke-linecap:round}.cls-5{stroke-linejoin:round}.cls-15,.cls-6,.cls-7,.cls-9{stroke:#288eea}.cls-7{stroke-width:5px}.cls-8{fill:#288eea}.cls-10{fill:#d4e8fb}.cls-10,.cls-13,.cls-14,.cls-22{stroke:#298eea}.cls-11{fill:#2c90ea}.cls-12{fill:#5ba6ea}.cls-13{fill:#e3f0fc}.cls-13,.cls-14,.cls-15{stroke-width:2px}.cls-14{fill:#bddfff}.cls-16{fill:#83b9ea}.cls-18{fill:#298eea}.cls-19{fill:#ddd}.cls-20,.cls-21{fill-rule:evenodd}.cls-21{fill:#ededed}.cls-23{fill:#c9c9c9}</style></defs><title>illustration banner PHP hosting</title><g id="Layer_1" data-name="Layer 1"><path class="cls-1" d="M580 356.021S608 111 518 73 355.486 7.3 312.333 51 83 31.667 41 116.666C-40.417 281.439 65.361 360 65.361 360z"/><path class="cls-2" d="M143 91H512a16 16 0 0 1 16 16V358a0 0 0 0 1 0 0H127a0 0 0 0 1 0 0V107a16 16 0 0 1 16-16z"/><path class="cls-2" d="M145.279 130.667h363.299V358H145.279z"/><path class="cls-2" d="M145.279 154.5h363.299V358H145.279z"/><path class="cls-3" d="M147.279 156.472H183v199.549H147.279z"/><path class="cls-4" d="M201.333 164.39h58v9.886H201.333z"/><path class="cls-4" d="M201.333 298.603h58v9.886H201.333z"/><path class="cls-4" d="M263 298.603h17.859v9.886H263z"/><path class="cls-3" d="M350.333 298.603h34.402v9.886H350.333z"/><path class="cls-4" d="M285.859 298.603h59.474v9.886H285.859z"/><path class="cls-4" d="M201.333 313.49h45.963v9.886H201.333z"/><path class="cls-3" d="M201.333 328.376h16.542v9.886H201.333z"/><path class="cls-3" d="M222.875 328.376H269.5v9.886H222.875z"/><path class="cls-4" d="M252.202 313.49h47.131v9.886H252.202z"/><path class="cls-4" d="M201.333 179.022h96v9.955H201.333z"/><path class="cls-4" d="M304.271 179.022H356v9.955H304.271z"/><path class="cls-4" d="M201.333 209.303h96v9.955H201.333z"/><path class="cls-4" d="M201.333 224.259h36.333v9.955H201.333z"/><path class="cls-3" d="M242.732 224.259h16.601v9.955H242.732z"/><path class="cls-4" d="M201.333 254.04h73.292v9.955H201.333z"/><path class="cls-3" d="M201.333 239.084h58v9.955H201.333z"/><path class="cls-3" d="M263 239.084h34.333v9.955H263z"/><path class="cls-3" d="M301.667 239.084H336v9.955H301.667z"/><path class="cls-3" d="M201.333 268.995h74.797v9.955H201.333z"/><path class="cls-3" d="M280.859 268.995h44.276v9.955H280.859z"/><path class="cls-5" d="M41 358H614z"/><path class="cls-5" d="M13 358H27z"/></g><g id="Layer_2" data-name="Layer 2"><rect class="cls-6" x="395.628" y="35" width="191.322" height="318.607" rx="12.546" ry="12.546"/><path class="cls-7" d="M411.623 265.153H570.955a4.415 4.415.0 0 1 4.415 4.415v27.958a4.414 4.414.0 0 1-4.414 4.414H411.623a4.414 4.414.0 0 1-4.414-4.414V269.567A4.414 4.414.0 0 1 411.623 265.153z"/><path class="cls-8" d="M422.763 291.271a2.576 2.576.0 0 1-2.575 2.574h0a2.575 2.575.0 0 1-2.575-2.574V275.822a2.576 2.576.0 0 1 2.575-2.576h0a2.576 2.576.0 0 1 2.575 2.576z"/><path class="cls-8" d="M431.477 291.271a2.576 2.576.0 0 1-2.575 2.574h0a2.575 2.575.0 0 1-2.575-2.574V275.822a2.576 2.576.0 0 1 2.575-2.576h0a2.576 2.576.0 0 1 2.575 2.576z"/><path class="cls-8" d="M440.191 291.271a2.576 2.576.0 0 1-2.575 2.574h0a2.575 2.575.0 0 1-2.575-2.574V275.822a2.576 2.576.0 0 1 2.575-2.576h0a2.576 2.576.0 0 1 2.575 2.576z"/><path class="cls-8" d="M564.075 283.546a5.05 5.05.0 0 1-5.05 5.05h0a5.05 5.05.0 0 1-5.05-5.05h0a5.05 5.05.0 0 1 5.05-5.05h0a5.05 5.05.0 0 1 5.05 5.05z"/><rect class="cls-7" x="407.209" y="218.834" width="168.161" height="36.787" rx="4.414" ry="4.414"/><path class="cls-8" d="M422.763 244.952a2.576 2.576.0 0 1-2.575 2.574h0a2.575 2.575.0 0 1-2.575-2.574V229.5a2.576 2.576.0 0 1 2.575-2.576h0a2.576 2.576.0 0 1 2.575 2.576z"/><path class="cls-8" d="M431.477 244.952a2.576 2.576.0 0 1-2.575 2.574h0a2.575 2.575.0 0 1-2.575-2.574V229.5a2.576 2.576.0 0 1 2.575-2.576h0a2.576 2.576.0 0 1 2.575 2.576z"/><path class="cls-8" d="M440.191 244.952a2.576 2.576.0 0 1-2.575 2.574h0a2.575 2.575.0 0 1-2.575-2.574V229.5a2.576 2.576.0 0 1 2.575-2.576h0a2.576 2.576.0 0 1 2.575 2.576z"/><path class="cls-8" d="M564.075 237.228a5.05 5.05.0 0 1-5.05 5.05h0a5.05 5.05.0 0 1-5.05-5.05h0a5.05 5.05.0 0 1 5.05-5.05h0a5.05 5.05.0 0 1 5.05 5.05z"/><path class="cls-7" d="M411.623 172.516H570.955a4.415 4.415.0 0 1 4.415 4.415v27.958a4.414 4.414.0 0 1-4.414 4.414H411.623a4.414 4.414.0 0 1-4.414-4.414V176.93A4.414 4.414.0 0 1 411.623 172.516z"/><path class="cls-8" d="M422.763 198.634a2.576 2.576.0 0 1-2.575 2.574h0a2.575 2.575.0 0 1-2.575-2.574V183.185a2.576 2.576.0 0 1 2.575-2.576h0a2.576 2.576.0 0 1 2.575 2.576z"/><path class="cls-8" d="M431.477 198.634a2.576 2.576.0 0 1-2.575 2.574h0a2.575 2.575.0 0 1-2.575-2.574V183.185a2.576 2.576.0 0 1 2.575-2.576h0a2.576 2.576.0 0 1 2.575 2.576z"/><path class="cls-8" d="M440.191 198.634a2.576 2.576.0 0 1-2.575 2.574h0a2.575 2.575.0 0 1-2.575-2.574V183.185a2.576 2.576.0 0 1 2.575-2.576h0a2.576 2.576.0 0 1 2.575 2.576z"/><path class="cls-8" d="M564.075 190.909a5.05 5.05.0 0 1-5.05 5.05h0a5.05 5.05.0 0 1-5.05-5.05h0a5.05 5.05.0 0 1 5.05-5.05h0a5.05 5.05.0 0 1 5.05 5.05z"/><path class="cls-7" d="M411.623 126.2H570.955a4.415 4.415.0 0 1 4.415 4.415V158.57a4.414 4.414.0 0 1-4.414 4.414H411.623a4.414 4.414.0 0 1-4.414-4.414V130.612A4.414 4.414.0 0 1 411.623 126.2z"/><path class="cls-8" d="M422.763 152.315a2.576 2.576.0 0 1-2.575 2.574h0a2.575 2.575.0 0 1-2.575-2.574V136.867a2.576 2.576.0 0 1 2.575-2.576h0a2.576 2.576.0 0 1 2.575 2.576z"/><path class="cls-8" d="M431.477 152.315a2.576 2.576.0 0 1-2.575 2.574h0a2.575 2.575.0 0 1-2.575-2.574V136.867a2.576 2.576.0 0 1 2.575-2.576h0a2.576 2.576.0 0 1 2.575 2.576z"/><path class="cls-8" d="M440.191 152.315a2.576 2.576.0 0 1-2.575 2.574h0a2.575 2.575.0 0 1-2.575-2.574V136.867a2.576 2.576.0 0 1 2.575-2.576h0a2.576 2.576.0 0 1 2.575 2.576z"/><path class="cls-8" d="M564.075 144.591a5.05 5.05.0 0 1-5.05 5.05h0a5.05 5.05.0 0 1-5.05-5.05h0a5.05 5.05.0 0 1 5.05-5.05h0a5.05 5.05.0 0 1 5.05 5.05z"/><path class="cls-7" d="M411.623 79.879H570.955a4.415 4.415.0 0 1 4.415 4.415v27.958a4.414 4.414.0 0 1-4.414 4.414H411.623a4.414 4.414.0 0 1-4.414-4.414V84.293A4.414 4.414.0 0 1 411.623 79.879z"/><path class="cls-8" d="M422.763 106a2.576 2.576.0 0 1-2.575 2.574h0A2.575 2.575.0 0 1 417.612 106V90.548a2.576 2.576.0 0 1 2.575-2.576h0a2.576 2.576.0 0 1 2.575 2.576z"/><path class="cls-8" d="M431.477 106a2.576 2.576.0 0 1-2.575 2.574h0A2.575 2.575.0 0 1 426.327 106V90.548a2.576 2.576.0 0 1 2.575-2.576h0a2.576 2.576.0 0 1 2.575 2.576z"/><path class="cls-8" d="M440.191 106a2.576 2.576.0 0 1-2.575 2.574h0A2.575 2.575.0 0 1 435.041 106V90.548a2.576 2.576.0 0 1 2.575-2.576h0a2.576 2.576.0 0 1 2.575 2.576z"/><path class="cls-8" d="M564.075 98.272a5.05 5.05.0 0 1-5.05 5.05h0a5.05 5.05.0 0 1-5.05-5.05h0a5.05 5.05.0 0 1 5.05-5.05h0a5.05 5.05.0 0 1 5.05 5.05z"/><rect class="cls-6" x="384.736" y="312.415" width="213.108" height="45.948" rx="4.753" ry="4.753"/><path class="cls-9" d="M575.37 61.409h-40.3a3.223 3.223.0 0 1-3.223-3.223h0a3.223 3.223.0 0 0-3.223-3.223h-64.4A3.223 3.223.0 0 0 461 58.186h0a3.223 3.223.0 0 1-3.223 3.223H407.943"/></g><g id="Layer_3" data-name="Layer 3"><path class="cls-10" d="M116 51v80h89.364L233 150.516V130.279 122.202 51H116z"/><path class="cls-11" d="M214.185 79.631s-12.009 22.456-12.174 22.82a.509.509.0 0 1-.488.345h-5.277c-.289.0-.059-.456-.059-.456l9.993-19.64h-9.01l-4.556-4.2 21.449.1s.423-.006.423.33A2.685 2.685.0 0 1 214.185 79.631z"/><path class="cls-12" d="M152.829 78.5H141.44a.607.607.0 0 0-.607.607v23.234a.608.608.0 0 0 .607.607h4.1a.608.608.0 0 0 .607-.607V94.748h6.682c2.684.0 4.391-2.176 4.391-4.859v-6.53C157.221 80.675 155.513 78.5 152.829 78.5zm-1.152 10.8a1.519 1.519.0 0 1-1.519 1.519h-4.176V82.575h4.176a1.519 1.519.0 0 1 1.519 1.519z"/><path class="cls-12" d="M193.526 78.5H182.137a.607.607.0 0 0-.607.607v23.234a.608.608.0 0 0 .607.607h4.1a.608.608.0 0 0 .607-.607V94.748h6.682c2.684.0 4.391-2.176 4.391-4.859v-6.53a4.561 4.561.0 0 0-3.575-4.789A4.63 4.63.0 0 0 193.526 78.5zm-1.152 10.8a1.519 1.519.0 0 1-1.519 1.519H186.68V82.575h4.176a1.518 1.518.0 0 1 1.519 1.519z"/><path class="cls-12" d="M177.227 78.449h-4.91a.3.3.0 0 0-.3.3v9.972h-5.568V78.753a.3.3.0 0 0-.3-.3h-4.91a.3.3.0 0 0-.3.3v23.791a.3.3.0 0 0 .3.3h4.91a.3.3.0 0 0 .3-.3V92.977h5.568v9.567a.3.3.0 0 0 .3.3h4.91a.3.3.0 0 0 .3-.3V78.753A.3.3.0 0 0 177.227 78.449z"/><path class="cls-13" d="M370.296 209.354h82.235v66.342H370.296z"/><path class="cls-14" d="M363.356 202.472h82.235v66.342H363.356z"/><path class="cls-15" d="M363.356 202.472h82.235v11.808H363.356z"/><path class="cls-15" d="M363.356 202.472h70.806v11.808H363.356z"/><path class="cls-16" d="M369.643 220.541h19.348v3.862H369.643z"/><path class="cls-16" d="M392.256 220.541h7.184v3.862H392.256z"/><path class="cls-16" d="M402.706 220.541h20.354v3.862H402.706z"/><path class="cls-16" d="M369.643 228.214h8.97v3.862H369.643z"/><path class="cls-16" d="M379.854 228.214h22.089v3.862H379.854z"/><path class="cls-16" d="M369.643 235.18h12.687v3.862H369.643z"/><path class="cls-16" d="M384.087 235.18h31.245v3.862H384.087z"/><path class="cls-16" d="M369.643 242.146h5.525v3.862H369.643z"/><path class="cls-16" d="M377.889 242.146h37.443v3.862H377.889z"/><path class="cls-16" d="M369.643 249.112h20.437v3.862H369.643z"/><path class="cls-16" d="M369.643 256.078h21.256v3.862H369.643z"/><path class="cls-16" d="M394.318 256.078h31.245v3.862H394.318z"/><path class="cls-3" d="M134.648 233.991 132.531 224.635H65.361V233.991 283.969 293.325h96.915V233.991H134.648z"/><path class="cls-17" d="M140.642 228.234 138.523 218.878H71.355V228.234 278.211 287.568H168.27V228.234H140.642z"/><path class="cls-8" d="M169.23 288.526H70.395V217.919H139.29l2.118 9.355H169.23zm-96.916-1.919h95V229.194H139.875l-2.118-9.356H72.314z"/><path class="cls-8" d="M168.27 245.266H71.355a.96.96.0 1 1 0-1.92H168.27a.96.96.0 0 1 0 1.92z"/><path class="cls-17" d="M95.504 240.708h24.309v7.357H95.504z"/><path class="cls-8" d="M120.771 249.025H94.545v-9.276h26.226zm-24.307-1.92h22.388v-5.438H96.464z"/><circle class="cls-10" cx="40.157" cy="117.407" r="8.343"/><circle class="cls-18" cx="51.079" cy="200.96" r="3.296"/><circle class="cls-3" cx="162.276" cy="21.01" r="3.296"/><circle class="cls-3" cx="341.5" cy="24.306" r="3.296"/><path class="cls-19" d="M309 32.733a14.333 14.333.0 1 0 14.332 14.333A14.349 14.349.0 0 0 309 32.733zm0 23.009a8.675 8.675.0 1 1 8.675-8.675A8.685 8.685.0 0 1 309 55.742z"/><path class="cls-8" d="M317.629 47.983a8.673 8.673.0 1 1-8.622-9.59V32.726a14.341 14.341.0 1 0 14.288 15.256z"/><path class="cls-20" d="M104.625 34.652a1.592 1.592.0 0 1-1.592 1.591h0a1.591 1.591.0 0 1-1.592-1.591V26.92a1.592 1.592.0 0 1 1.592-1.592h0a1.592 1.592.0 0 1 1.592 1.592z"/><path class="cls-20" d="M104.625 49.737a1.592 1.592.0 0 1-1.592 1.591h0a1.591 1.591.0 0 1-1.592-1.591V42a1.591 1.591.0 0 1 1.592-1.591h0A1.592 1.592.0 0 1 104.625 42z"/><path class="cls-20" d="M106.709 39.654a1.591 1.591.0 0 1-1.592-1.592h0a1.591 1.591.0 0 1 1.592-1.592h7.731a1.591 1.591.0 0 1 1.592 1.592h0a1.591 1.591.0 0 1-1.592 1.592z"/><path class="cls-20" d="M91.624 39.654a1.591 1.591.0 0 1-1.592-1.592h0a1.591 1.591.0 0 1 1.592-1.592h7.731a1.591 1.591.0 0 1 1.592 1.592h0a1.591 1.591.0 0 1-1.592 1.592z"/><path class="cls-20" d="M127.98 17.464a.979.979.0 0 1-.98.979h0a.979.979.0 0 1-.98-.979V12.706a.979.979.0 0 1 .98-.979h0a.98.98.0 0 1 .98.979z"/><path class="cls-20" d="M127.98 26.747a.979.979.0 0 1-.98.979h0a.979.979.0 0 1-.98-.979V21.989a.979.979.0 0 1 .98-.979h0a.979.979.0 0 1 .98.979z"/><path class="cls-20" d="M129.263 20.542a.979.979.0 0 1-.98-.979h0a.979.979.0 0 1 .98-.979h4.758a.979.979.0 0 1 .98.979h0a.979.979.0 0 1-.98.979z"/><path class="cls-20" d="M119.98 20.542a.979.979.0 0 1-.98-.979h0a.979.979.0 0 1 .98-.979h4.758a.979.979.0 0 1 .98.979h0a.979.979.0 0 1-.98.979z"/><path class="cls-21" d="M72.335 25.34a.979.979.0 0 1-.979.979h0a.979.979.0 0 1-.979-.979V20.582a.979.979.0 0 1 .979-.979h0a.979.979.0 0 1 .979.979z"/><path class="cls-21" d="M72.335 34.623a.979.979.0 0 1-.979.979h0a.979.979.0 0 1-.979-.979V29.865a.979.979.0 0 1 .979-.979h0a.979.979.0 0 1 .979.979z"/><path class="cls-21" d="M73.618 28.418a.979.979.0 0 1-.98-.979h0a.979.979.0 0 1 .98-.979h4.758a.98.98.0 0 1 .98.979h0a.979.979.0 0 1-.98.979z"/><path class="cls-21" d="M64.334 28.418a.979.979.0 0 1-.979-.979h0a.979.979.0 0 1 .979-.979h4.758a.979.979.0 0 1 .979.979h0a.979.979.0 0 1-.979.979z"/><path class="cls-17" d="M374.911 27.025H433.62a.519.519.0 0 1 .519.519V71.322a.519.519.0 0 1-.519.519H374.911a.518.518.0 0 1-.518-.518V27.543A.519.519.0 0 1 374.911 27.025z"/><path class="cls-18" d="M433.139 28.025V70.841H375.392V28.025h57.746m.482-2h-58.71a1.523 1.523.0 0 0-1.518 1.518V71.323a1.523 1.523.0 0 0 1.518 1.518h58.71a1.523 1.523.0 0 0 1.518-1.518V27.543a1.523 1.523.0 0 0-1.518-1.518z"/><path class="cls-22" d="M374 37.5h61z"/><circle class="cls-23" cx="428.882" cy="32.162" r="1.708"/><circle class="cls-23" cx="422.049" cy="32.162" r="1.708"/><circle class="cls-23" cx="415.217" cy="32.162" r="1.708"/><path class="cls-18" d="M395.324 61.817a.759.759.0 0 1-.6-.3l-6.228-8.091 6.572-8.539a.759.759.0 0 1 1.2.925l-5.86 7.614 5.516 7.166a.759.759.0 0 1-.6 1.222z"/><path class="cls-18" d="M412.373 61.817a.759.759.0 0 0 .6-.3l6.228-8.091-6.572-8.539a.759.759.0 1 0-1.2.925l5.86 7.614L411.771 60.6a.759.759.0 0 0 .6 1.222z"/><path class="cls-18" d="M399.874 63.034a.747.747.0 0 1-.307-.065.757.757.0 0 1-.387-1l8.1-18.283a.759.759.0 0 1 1.388.614l-8.1 18.283A.76.76.0 0 1 399.874 63.034z"/></g></svg>